<svg width="98" height="97" viewBox="0 0 98 97" fill="none" xmlns="http://www.w3.org/2000/svg">
<g clip-path="url(#clip0_55_1607)">
<path d="M49.2544 0C22.4703 0 0.754395 21.7159 0.754395 48.5C0.754395 75.2841 22.4703 97 49.2544 97C76.0385 97 97.7544 75.2841 97.7544 48.5C97.7544 21.7159 76.0385 0 49.2544 0ZM71.722 35.0837L48.4905 70.5918C48.4845 70.5978 48.4723 70.6039 48.4723 70.6099C48.3511 70.7918 48.2844 70.9979 48.1328 71.1677C47.9206 71.3981 47.6478 71.5193 47.4053 71.6951C47.3447 71.7376 47.2841 71.7861 47.2174 71.8285C46.8415 72.0649 46.4535 72.2226 46.0291 72.3256C45.8897 72.362 45.7624 72.3984 45.6169 72.4226C45.2792 72.4691 44.9371 72.4731 44.5984 72.4348C44.3592 72.4196 44.1218 72.3831 43.8891 72.3256C43.649 72.2532 43.4157 72.1599 43.1919 72.0467C42.9979 71.9558 42.7918 71.9316 42.6099 71.8164C42.4765 71.7315 42.4038 71.5981 42.2886 71.4951C42.2401 71.4526 42.1795 71.4405 42.131 71.3981L28.6055 58.8911C27.8038 58.1213 27.3361 57.0677 27.3029 55.9567C27.2697 54.8458 27.6737 53.7661 28.4281 52.9498C29.1824 52.1336 30.2269 51.6458 31.337 51.5914C32.4472 51.537 33.5343 51.9203 34.3649 52.6589L44.1558 61.7163L64.6168 30.4398C65.2326 29.4976 66.1975 28.8386 67.2992 28.6078C68.4009 28.377 69.5491 28.5933 70.4913 29.2091C71.4335 29.8249 72.0925 30.7898 72.3233 31.8915C72.5541 32.9932 72.3378 34.1415 71.722 35.0837Z" fill="#47C147"/>
</g>
<defs>
<clipPath id="clip0_55_1607">
<rect width="97" height="97" fill="white" transform="translate(0.5)"/>
</clipPath>
</defs>
</svg>
