<svg width="44" height="44" viewBox="0 0 44 44" fill="none" xmlns="http://www.w3.org/2000/svg">
<path d="M42.7141 13.2155C42.7141 10.7895 40.7401 8.81549 38.3141 8.81549H5.68613C3.26015 8.81549 1.28613 10.7895 1.28613 13.2155V30.7845C1.28613 33.2106 3.26015 35.1845 5.68613 35.1845H38.3141C40.7401 35.1845 42.7141 33.2106 42.7141 30.7845V13.2155ZM40.9541 30.7845C40.9541 32.2403 39.7699 33.4245 38.3141 33.4245H5.68613C4.23035 33.4245 3.04613 32.2403 3.04613 30.7845V13.2155C3.04613 11.7597 4.23035 10.5755 5.68613 10.5755H38.3141C39.7699 10.5755 40.9541 11.7597 40.9541 13.2155V30.7845Z" fill="#232323"/>
<path d="M15.3548 12.6457C14.5179 12.6457 13.7266 12.837 13.0141 13.1698C12.2834 12.831 11.4871 12.644 10.6772 12.644C7.61607 12.644 5.12646 15.1396 5.12646 18.2068C5.12646 21.2679 7.61607 23.7575 10.6772 23.7575C11.4865 23.7575 12.281 23.5714 13.0098 23.234C13.7234 23.5679 14.5162 23.76 15.3548 23.76C18.4184 23.76 20.9115 21.267 20.9115 18.2034C20.9115 15.1388 18.4184 12.6457 15.3548 12.6457ZM6.88646 18.2068C6.88646 16.1098 8.58715 14.404 10.6772 14.404C10.877 14.404 11.0722 14.4236 11.265 14.4532C10.3567 15.443 9.79715 16.7573 9.79715 18.2034C9.79715 19.6471 10.3555 20.9599 11.2617 21.949C11.0701 21.9783 10.8759 21.9975 10.6772 21.9975C8.58715 21.9975 6.88646 20.2968 6.88646 18.2068ZM15.3548 22C13.2605 22 11.5572 20.2968 11.5572 18.2034C11.5572 16.109 13.2605 14.4057 15.3548 14.4057C17.4482 14.4057 19.1515 16.109 19.1515 18.2034C19.1515 20.2968 17.4482 22 15.3548 22ZM20.0315 27.8885H6.43617C5.94979 27.8885 5.55617 28.2821 5.55617 28.7685C5.55617 29.2548 5.94979 29.6485 6.43617 29.6485H20.0315C20.5178 29.6485 20.9115 29.2548 20.9115 28.7685C20.9115 28.2821 20.5178 27.8885 20.0315 27.8885ZM36.2092 23.5615H27.5562C27.0698 23.5615 26.6762 23.9551 26.6762 24.4415C26.6762 24.928 27.0698 25.3215 27.5562 25.3215H36.2092C36.6956 25.3215 37.0892 24.928 37.0892 24.4415C37.0892 23.9551 36.6956 23.5615 36.2092 23.5615ZM36.2092 27.8885H27.5562C27.0698 27.8885 26.6762 28.2821 26.6762 28.7685C26.6762 29.2548 27.0698 29.6485 27.5562 29.6485H36.2092C36.6956 29.6485 37.0892 29.2548 37.0892 28.7685C37.0892 28.2821 36.6956 27.8885 36.2092 27.8885Z" fill="#232323"/>
</svg>
