<svg width="16" height="14" viewBox="0 0 16 14" fill="none" xmlns="http://www.w3.org/2000/svg">
<path d="M12.1287 11.1328H0.246094V10.0128H12.1236C13.2249 10.0128 14.1191 8.99741 14.1309 7.73974V7.73846V7.73008C14.1309 4.09587 11.5693 1.14665 8.40047 1.12002H0.246094V0H8.39827C12.1086 0.0211816 15.1092 3.46962 15.1092 7.72045V7.74415V7.74292C15.094 9.61596 13.7663 11.1282 12.1291 11.1328H12.1287H12.1287ZM2.12436 10.0128C3.08606 10.0128 3.86566 10.9053 3.86566 12.0064C3.86566 13.1075 3.08607 14 2.12436 14C1.16265 14 0.383057 13.1075 0.383057 12.0064C0.38417 10.9059 1.16312 10.0141 2.12426 10.0128H2.12436ZM2.12436 12.88C2.5458 12.88 2.8874 12.4889 2.8874 12.0064C2.8874 11.5239 2.54577 11.1328 2.12436 11.1328C1.70292 11.1328 1.36132 11.5239 1.36132 12.0064C1.36169 12.4887 1.7031 12.8796 2.12433 12.88H2.12436ZM8.99829 10.0128C9.95996 10.0128 10.7396 10.9053 10.7396 12.0064C10.7396 13.1075 9.95999 14 8.99827 14C8.03657 14 7.25697 13.1075 7.25697 12.0064C7.25807 10.9059 8.037 10.0141 8.99815 10.0128H8.99826H8.99829ZM8.99829 12.88C9.41969 12.88 9.76132 12.4889 9.76132 12.0064C9.76132 11.5239 9.41968 11.1328 8.99829 11.1328C8.57685 11.1328 8.23525 11.5239 8.23525 12.0064C8.2356 12.4887 8.577 12.8796 8.99824 12.88H8.99829ZM11.4961 10.0128C12.4578 10.0128 13.2374 10.9053 13.2374 12.0064C13.2374 13.1075 12.4578 14 11.4961 14C10.5344 14 9.75479 13.1075 9.75479 12.0064C9.7559 10.9059 10.5348 10.0141 11.496 10.0128H11.4961ZM11.4961 12.88C11.9175 12.88 12.2591 12.4889 12.2591 12.0064C12.2591 11.5239 11.9175 11.1328 11.4961 11.1328C11.0747 11.1328 10.7331 11.5239 10.7331 12.0064C10.7334 12.4887 11.0748 12.8796 11.4961 12.88H11.4961ZM15.1065 8.30293H10.2439C8.5934 8.29879 7.25681 6.76597 7.25681 4.87575C7.25681 4.86314 7.25685 4.85056 7.25695 4.83798V4.83989C7.27151 3.74939 8.0424 2.87049 8.99476 2.85976H13.6117L13.7585 3.08375C14.6017 4.36018 15.1091 5.97415 15.1091 7.72382V7.74401V7.74297L15.1065 8.30293ZM8.99827 3.97975C8.57937 3.98554 8.24104 4.37236 8.23523 4.85121V4.85185C8.23516 4.85896 8.23513 4.86735 8.23513 4.87575C8.23513 6.14792 9.13447 7.17961 10.245 7.18294H14.112C14.023 5.97571 13.6639 4.88143 13.1049 3.95781L13.1174 3.97975H8.99827ZM3.99609 6.80959H0.246094V5.68957H3.99609C4.40851 5.68957 4.74283 5.30681 4.74283 4.83464C4.74283 4.36248 4.40851 3.97972 3.99609 3.97972H0.246094V2.85976H3.99609C4.95371 2.86224 5.73003 3.74737 5.7374 4.84207V4.85784C5.71693 5.94073 4.94533 6.80963 3.99647 6.80963H3.99606L3.99609 6.80959ZM2.61349 6.27943H1.63521V3.41974H2.61349V6.27943ZM15.2461 14H0.246094V12.88H15.2461V14Z" fill="#7F7F7F"/>
</svg>
