<svg width="13" height="13" viewBox="0 0 13 13" fill="none" xmlns="http://www.w3.org/2000/svg">
<g clip-path="url(#clip0_355_1000)">
<path d="M6.5 7.3125C8.51855 7.3125 10.1562 5.6748 10.1562 3.65625C10.1562 1.6377 8.51855 0 6.5 0C4.48145 0 2.84375 1.6377 2.84375 3.65625C2.84375 5.6748 4.48145 7.3125 6.5 7.3125ZM9.75 8.125H8.35098C7.7873 8.38398 7.16016 8.53125 6.5 8.53125C5.83984 8.53125 5.21523 8.38398 4.64902 8.125H3.25C1.45488 8.125 0 9.57988 0 11.375V11.7812C0 12.4541 0.545898 13 1.21875 13H11.7812C12.4541 13 13 12.4541 13 11.7812V11.375C13 9.57988 11.5451 8.125 9.75 8.125Z" fill="#7F7F7F"/>
</g>
<defs>
<clipPath id="clip0_355_1000">
<rect width="13" height="13" fill="white"/>
</clipPath>
</defs>
</svg>
