<svg width="19" height="19" viewBox="0 0 19 19" fill="none" xmlns="http://www.w3.org/2000/svg">
<g clip-path="url(#clip0_55_748)">
<path d="M7.81561 2.47204H11.1844C11.3944 2.47204 11.5644 2.30189 11.5644 2.09204C11.5644 1.88218 11.3944 1.71204 11.1844 1.71204H7.81561C7.60557 1.71204 7.43561 1.88218 7.43561 2.09204C7.43561 2.30189 7.60557 2.47204 7.81561 2.47204Z" fill="#676666"/>
<path d="M0.759622 18.62C0.870951 18.62 0.980793 18.5716 1.05576 18.4784L1.8716 17.4661H17.1285L17.9442 18.4784C18.0752 18.6415 18.3146 18.6679 18.4782 18.536C18.6419 18.4042 18.6675 18.165 18.5358 18.0016L14.7051 13.2475C15.4735 13.0038 16.0357 12.2923 16.0357 11.4444C16.0357 5.28712 16.0357 6.53878 16.0357 2.28C16.0357 1.23241 15.1833 0.380005 14.1357 0.380005H4.86466C3.81706 0.380005 2.96466 1.23241 2.96466 2.28C2.96466 7.12082 2.96466 6.72965 2.96466 11.4444C2.96466 12.2923 3.52687 13.0038 4.29522 13.2475L0.464233 18.0016C0.332494 18.165 0.358099 18.4042 0.521381 18.536C0.59189 18.5925 0.676129 18.62 0.759622 18.62ZM2.484 16.7061L3.82838 15.0378H15.1719L16.5161 16.7061H2.484ZM4.44087 14.2778L5.19308 13.3444H13.8073L14.5595 14.2778H4.44087ZM4.10466 8.40175C3.89499 8.40175 3.72466 8.23123 3.72466 8.02175V4.38893C3.72466 4.17945 3.89499 4.00893 4.10466 4.00893H9.11999V8.40175H4.10466ZM9.87999 4.00893H14.8957C15.1054 4.00893 15.2757 4.17945 15.2757 4.38893V8.02175C15.2757 8.23123 15.1054 8.40175 14.8957 8.40175H9.87999V4.00893ZM4.86466 1.14H14.1357C14.7643 1.14 15.2757 1.65137 15.2757 2.28V3.31897C15.1562 3.27639 15.0296 3.24893 14.8957 3.24893H4.10466C3.97079 3.24893 3.84415 3.27639 3.72466 3.31897V2.28C3.72466 1.65137 4.23603 1.14 4.86466 1.14ZM3.72466 11.4444V9.09171C4.10125 9.22591 3.56989 9.13361 14.8957 9.16176C15.0296 9.16176 15.1562 9.13429 15.2757 9.09171V11.4444C15.2757 12.073 14.7643 12.5844 14.1357 12.5844H13.9891H5.01124H4.86466C4.23603 12.5844 3.72466 12.073 3.72466 11.4444Z" fill="#676666"/>
<path d="M6.17503 12.0542C6.80367 12.0542 7.31503 11.5429 7.31503 10.9142C7.31503 10.2856 6.80367 9.77423 6.17503 9.77423C5.5464 9.77423 5.03503 10.2856 5.03503 10.9142C5.03503 11.5429 5.5464 12.0542 6.17503 12.0542ZM6.17503 10.5342C6.3847 10.5342 6.55503 10.7047 6.55503 10.9142C6.55503 11.1237 6.3847 11.2942 6.17503 11.2942C5.96537 11.2942 5.79503 11.1237 5.79503 10.9142C5.79503 10.7047 5.96537 10.5342 6.17503 10.5342ZM12.825 12.0542C13.4537 12.0542 13.965 11.5429 13.965 10.9142C13.965 10.2856 13.4537 9.77423 12.825 9.77423C12.1964 9.77423 11.685 10.2856 11.685 10.9142C11.685 11.5429 12.1964 12.0542 12.825 12.0542ZM12.825 10.5342C13.0347 10.5342 13.205 10.7047 13.205 10.9142C13.205 11.1237 13.0347 11.2942 12.825 11.2942C12.6154 11.2942 12.445 11.1237 12.445 10.9142C12.445 10.7047 12.6154 10.5342 12.825 10.5342Z" fill="#676666"/>
</g>
<defs>
<clipPath id="clip0_55_748">
<rect width="19" height="19" fill="white"/>
</clipPath>
</defs>
</svg>
