<svg width="27" height="49" viewBox="0 0 27 49" fill="none" xmlns="http://www.w3.org/2000/svg">
<g clip-path="url(#clip0_55_1072)">
<path d="M22.3781 10.9045C21.6591 10.5467 21.0273 10.4676 20.6513 10.4639C20.6296 10.4631 20.6081 10.4606 20.5859 10.4606H12.5113C12.3291 10.4606 12.1546 10.4918 11.9912 10.5467C11.2845 10.7148 9.86169 11.2478 8.54063 12.8283C6.83835 14.8584 5.41216 18.4102 5.41342 24.6398C5.41342 24.7993 5.41509 24.9625 5.41718 25.1261C5.41927 25.2889 5.4224 25.4546 5.42638 25.6213H5.25834C3.84887 25.6217 2.70671 26.7485 2.70629 28.14V31.1341H1.01447C0.454358 31.1341 0 31.5822 0 32.1356V46.6131C0 47.1659 0.454358 47.6147 1.01447 47.6147H1.36098V48.5995C1.36098 48.8207 1.5426 49 1.76664 49H3.05155C3.2756 49 3.45763 48.8207 3.45763 48.5995V47.6147H10.4059V48.5995C10.4059 48.8207 10.5875 49 10.8116 49H12.0965C12.3205 49 12.5021 48.8207 12.5021 48.5995V47.6147H12.8487C13.4088 47.6147 13.8631 47.1659 13.8631 46.6131V32.1356C13.8631 31.5822 13.4088 31.1341 12.8487 31.1341H11.1562V28.14C11.1562 26.8036 10.1022 25.7146 8.77073 25.6296C8.76634 25.4622 8.76279 25.2965 8.76049 25.134C8.7584 24.9672 8.75673 24.8018 8.75673 24.6396C8.7584 19.2743 9.89889 16.5567 10.8954 15.2125V26.1547C11.3683 26.6856 11.6576 27.3795 11.6576 28.1402V30.6389H12.848C13.6842 30.6389 14.3641 31.3103 14.3641 32.1352V46.6131C14.3641 47.3865 13.7668 48.0247 13.0033 48.1016V48.5991C13.0033 48.6994 12.9826 48.7945 12.9517 48.8847C13.1222 48.9195 13.2982 48.9383 13.4792 48.9383C14.9062 48.9383 16.0634 47.7967 16.0634 46.3874V27.7616H17.0321V46.3874C17.0321 47.7967 18.1894 48.9383 19.616 48.9383C21.043 48.9383 22.2002 47.7967 22.2002 46.3874V15.4454C22.3241 15.6965 22.4489 15.9841 22.5724 16.3201C23.1616 17.9321 23.6569 20.5769 23.6552 24.705C23.6552 25.8429 23.618 27.0929 23.5374 28.4656C23.483 29.3755 24.1867 30.1563 25.109 30.2097C25.142 30.2116 25.1748 30.2126 25.2077 30.2126C26.0867 30.2126 26.8238 29.535 26.8759 28.6577C26.9599 27.2272 26.9992 25.9139 26.9996 24.7052C26.991 18.4773 25.9832 15.0311 24.6095 12.9587C23.9236 11.9295 23.1206 11.2701 22.3781 10.9045ZM12.1916 37.4314V38.3256H1.67197V37.4314H12.1916ZM10.1114 28.1402V31.1343H3.75169V28.1402C3.75336 27.319 4.42612 26.6544 5.25834 26.6532H5.6406C5.74823 26.8453 5.89285 27.0134 6.06528 27.1486C6.35097 27.3725 6.71191 27.506 7.10252 27.506C7.11924 27.506 7.13596 27.5055 7.15268 27.5051C7.52658 27.4942 7.86724 27.3615 8.13977 27.1484C8.31303 27.0128 8.45786 26.8447 8.5655 26.653H8.60542C9.43743 26.6544 10.1102 27.3188 10.1114 28.1402Z" fill="#232323"/>
<path d="M16.5488 9.28495C19.1459 9.28495 21.2513 7.20645 21.2513 4.64248C21.2513 2.07851 19.1459 0 16.5488 0C13.9518 0 11.8464 2.07851 11.8464 4.64248C11.8464 7.20645 13.9518 9.28495 16.5488 9.28495Z" fill="#232323"/>
</g>
<defs>
<clipPath id="clip0_55_1072">
<rect width="27" height="49" fill="white"/>
</clipPath>
</defs>
</svg>
