<svg width="67" height="67" viewBox="0 0 67 67" fill="none" xmlns="http://www.w3.org/2000/svg">
<path d="M64.5636 25.7848H2.43636C1.82727 25.7848 1.42121 25.0742 1.72576 24.5666L6.39545 16.8515C6.49697 16.6485 6.80152 16.4454 7.10606 16.4454H59.8939C60.1985 16.4454 60.4015 16.5469 60.6046 16.8515L65.2743 24.5666C65.5788 25.1757 65.1727 25.7848 64.5636 25.7848Z" fill="#E8664A"/>
<path d="M65.2743 24.5666L60.6046 16.8515C60.503 16.6485 60.1985 16.4454 59.8939 16.4454H7.10606C6.80152 16.4454 6.59848 16.5469 6.39545 16.8515L1.72576 24.5666C1.42121 25.0742 1.82727 25.7848 2.43636 25.7848H64.5636C65.1727 25.7848 65.5788 25.1757 65.2743 24.5666Z" fill="#D95239"/>
<path d="M65.2742 24.5666L60.6045 16.8515C60.503 16.6485 60.1985 16.4454 59.8939 16.4454H33.6015V25.7848H64.5636C65.1727 25.7848 65.5788 25.1757 65.2742 24.5666Z" fill="#E8664A"/>
<path d="M41.0121 15.6333H25.8864V25.7848H41.0121V15.6333Z" fill="#D5B79F"/>
<path d="M33.5 15.6333H25.8864V25.7848H33.5V15.6333Z" fill="#C6A28A"/>
<path d="M61.6197 25.7848H5.48181V45.2757H61.6197V25.7848Z" fill="#D5B79F"/>
<path d="M61.6197 25.7848H33.5V45.2757H61.6197V25.7848Z" fill="#C6A28A"/>
<path d="M35.9364 1.52276C35.8349 1.31973 35.5303 1.1167 35.3273 1.1167H31.7742C31.4697 1.1167 31.2667 1.31973 31.1652 1.52276L25.9879 15.6334H41.1136L35.9364 1.52276Z" fill="#E8664A"/>
<path d="M33.5 15.6334H41.1136L35.9364 1.52276C35.8349 1.31973 35.5303 1.1167 35.3273 1.1167H33.5V15.6334Z" fill="#D95239"/>
<path d="M33.5 18.1713C31.7743 18.1713 30.2515 19.5925 30.2515 21.4198V25.8864H36.647V21.3182C36.7485 19.5925 35.2258 18.1713 33.5 18.1713Z" fill="#465C6A"/>
<path d="M41.3167 13.603H25.6833C25.5818 13.603 25.4803 13.7045 25.4803 13.8061V15.5318C25.4803 15.6333 25.5818 15.7348 25.6833 15.7348H41.3167C41.4182 15.7348 41.5197 15.6333 41.5197 15.5318V13.8061C41.5197 13.7045 41.4182 13.603 41.3167 13.603Z" fill="#D95239"/>
<path d="M41.3167 13.603H33.5V15.6333H41.3167C41.4182 15.6333 41.5197 15.5318 41.5197 15.4303V13.7045C41.5197 13.7045 41.4182 13.603 41.3167 13.603Z" fill="#E8664A"/>
<path d="M14.9227 30.2515C12.6894 30.2515 10.8621 32.0787 10.8621 34.3121V45.2757H18.9833V34.3121C18.9833 32.0787 17.2576 30.2515 14.9227 30.2515Z" fill="#465C6A"/>
<path d="M33.5 30.2515C31.2667 30.2515 29.4394 32.0787 29.4394 34.3121V45.2757H37.5606V34.3121C37.5606 32.0787 35.7333 30.2515 33.5 30.2515Z" fill="#3B4C56"/>
<path d="M33.5 30.2515V45.2757H37.5606V34.3121C37.5606 32.0787 35.7333 30.2515 33.5 30.2515ZM52.0773 30.2515C49.8439 30.2515 48.0167 32.0787 48.0167 34.3121V45.2757H56.1379V34.3121C56.1379 32.0787 54.3106 30.2515 52.0773 30.2515Z" fill="#465C6A"/>
<path d="M65.9848 45.2758H1.01514V52.1788H65.9848V45.2758Z" fill="#E6E6E8"/>
<path d="M10.9636 61.0106V62.3303C10.9636 62.7364 11.2682 63.0409 11.6742 63.0409H30.8606C31.2666 63.0409 31.5712 62.7364 31.5712 62.3303V61.0106H10.9636Z" fill="#C6A28A"/>
<path d="M31.5712 46.9H10.8621C9.94849 46.9 9.23788 47.6106 9.23788 48.5243V59.9955C9.23788 60.9091 9.94849 61.6197 10.8621 61.6197H31.5712C32.4849 61.6197 33.1955 60.9091 33.1955 59.9955V48.5243C33.1955 47.6106 32.4849 46.9 31.5712 46.9Z" fill="#1E87B7"/>
<path d="M31.5712 46.9H21.3182V61.6197H31.5712C32.4848 61.6197 33.1955 60.9091 33.1955 59.9955V48.5243C33.1955 47.6106 32.4848 46.9 31.5712 46.9Z" fill="#1576AC"/>
<path d="M9.23788 57.0515V59.9955C9.23788 60.9091 9.94849 61.6197 10.8621 61.6197H31.5712C32.4849 61.6197 33.1955 60.9091 33.1955 59.9955V57.0515H9.23788Z" fill="#1E87B7"/>
<path d="M21.3182 57.0515H9.23788V59.9955C9.23788 60.9091 9.94849 61.6197 10.8621 61.6197H21.3182V57.0515Z" fill="#1576AC"/>
<path d="M23.1454 50.1484H19.3894C19.0848 50.1484 18.8818 50.3515 18.8818 50.656V54.4121C18.8818 54.7166 19.0848 54.9196 19.3894 54.9196H23.1454C23.45 54.9196 23.653 54.7166 23.653 54.4121V50.7575C23.653 50.453 23.45 50.1484 23.1454 50.1484Z" fill="#E6E6E8"/>
<path d="M23.1454 50.1484H21.3182V54.9196H23.1454C23.45 54.9196 23.653 54.7166 23.653 54.4121V50.7575C23.653 50.453 23.45 50.1484 23.1454 50.1484Z" fill="white"/>
<path d="M16.2424 50.1484H12.4864C12.1818 50.1484 11.9788 50.3515 11.9788 50.656V54.4121C11.9788 54.7166 12.1818 54.9196 12.4864 54.9196H16.2424C16.547 54.9196 16.75 54.7166 16.75 54.4121V50.7575C16.75 50.453 16.547 50.1484 16.2424 50.1484Z" fill="#E6E6E8"/>
<path d="M29.947 50.1484H26.1909C25.8864 50.1484 25.6833 50.3515 25.6833 50.656V54.4121C25.6833 54.7166 25.8864 54.9196 26.1909 54.9196H29.947C30.2515 54.9196 30.4546 54.7166 30.4546 54.4121V50.7575C30.5561 50.453 30.2515 50.1484 29.947 50.1484Z" fill="white"/>
<path d="M14.4151 65.5788C15.3683 65.5788 16.1409 64.8062 16.1409 63.8531C16.1409 62.9 15.3683 62.1273 14.4151 62.1273C13.462 62.1273 12.6894 62.9 12.6894 63.8531C12.6894 64.8062 13.462 65.5788 14.4151 65.5788Z" fill="#465C6A"/>
<path d="M14.4152 64.7667C14.9197 64.7667 15.3288 64.3577 15.3288 63.8531C15.3288 63.3485 14.9197 62.9395 14.4152 62.9395C13.9106 62.9395 13.5015 63.3485 13.5015 63.8531C13.5015 64.3577 13.9106 64.7667 14.4152 64.7667Z" fill="#3B4C56"/>
<path d="M18.2727 65.5788C19.2258 65.5788 19.9985 64.8062 19.9985 63.8531C19.9985 62.9 19.2258 62.1273 18.2727 62.1273C17.3196 62.1273 16.547 62.9 16.547 63.8531C16.547 64.8062 17.3196 65.5788 18.2727 65.5788Z" fill="#465C6A"/>
<path d="M18.2727 64.7667C18.7773 64.7667 19.1864 64.3577 19.1864 63.8531C19.1864 63.3485 18.7773 62.9395 18.2727 62.9395C17.7681 62.9395 17.3591 63.3485 17.3591 63.8531C17.3591 64.3577 17.7681 64.7667 18.2727 64.7667Z" fill="#3B4C56"/>
<path d="M18.3742 64.2591H14.4152C14.2121 64.2591 14.0091 64.0561 14.0091 63.8531C14.0091 63.6501 14.2121 63.447 14.4152 63.447H18.3742C18.5773 63.447 18.7803 63.6501 18.7803 63.8531C18.7803 64.0561 18.5773 64.2591 18.3742 64.2591Z" fill="#283A48"/>
<path d="M24.1606 65.7818C25.1137 65.7818 25.8864 65.0092 25.8864 64.0561C25.8864 63.103 25.1137 62.3303 24.1606 62.3303C23.2075 62.3303 22.4348 63.103 22.4348 64.0561C22.4348 65.0092 23.2075 65.7818 24.1606 65.7818Z" fill="#283A48"/>
<path d="M24.1606 64.9697C24.6652 64.9697 25.0743 64.5607 25.0743 64.0561C25.0743 63.5515 24.6652 63.1425 24.1606 63.1425C23.656 63.1425 23.247 63.5515 23.247 64.0561C23.247 64.5607 23.656 64.9697 24.1606 64.9697Z" fill="#465C6A"/>
<path d="M28.1197 65.7818C29.0728 65.7818 29.8454 65.0092 29.8454 64.0561C29.8454 63.103 29.0728 62.3303 28.1197 62.3303C27.1666 62.3303 26.3939 63.103 26.3939 64.0561C26.3939 65.0092 27.1666 65.7818 28.1197 65.7818Z" fill="#283A48"/>
<path d="M28.1197 64.9697C28.6243 64.9697 29.0333 64.5607 29.0333 64.0561C29.0333 63.5515 28.6243 63.1425 28.1197 63.1425C27.6151 63.1425 27.2061 63.5515 27.2061 64.0561C27.2061 64.5607 27.6151 64.9697 28.1197 64.9697Z" fill="#465C6A"/>
<path d="M28.1197 64.4621H24.1606C23.9576 64.4621 23.7545 64.2591 23.7545 64.0561C23.7545 63.8531 23.9576 63.65 24.1606 63.65H28.1197C28.3227 63.65 28.5258 63.8531 28.5258 64.0561C28.5258 64.2591 28.4242 64.4621 28.1197 64.4621Z" fill="#3B4C56"/>
<path d="M35.8348 61.0106V62.3303C35.8348 62.7364 36.1394 63.0409 36.5454 63.0409H55.7318C56.1379 63.0409 56.4424 62.7364 56.4424 62.3303V61.0106H35.8348Z" fill="#C6A28A"/>
<path d="M56.5439 46.9H35.8348C34.9212 46.9 34.2106 47.6106 34.2106 48.5243V59.9955C34.2106 60.9091 34.9212 61.6197 35.8348 61.6197H56.5439C57.4576 61.6197 58.1682 60.9091 58.1682 59.9955V48.5243C58.1682 47.6106 57.3561 46.9 56.5439 46.9Z" fill="#1E87B7"/>
<path d="M56.5439 46.9H46.1894V61.6197H56.4424C57.3561 61.6197 58.0667 60.9091 58.0667 59.9955V48.5243C58.1682 47.6106 57.3561 46.9 56.5439 46.9Z" fill="#1576AC"/>
<path d="M34.2106 57.0515V59.9955C34.2106 60.9091 34.9212 61.6197 35.8348 61.6197H56.5439C57.4576 61.6197 58.1682 60.9091 58.1682 59.9955V57.0515H34.2106Z" fill="#1E87B7"/>
<path d="M46.2909 57.0515H34.2106V59.9955C34.2106 60.9091 34.9212 61.6197 35.8348 61.6197H46.1894V57.0515H46.2909Z" fill="#1576AC"/>
<path d="M48.0167 50.1486H44.2606C43.9561 50.1486 43.753 50.3516 43.753 50.6561V54.4122C43.753 54.7167 43.9561 54.9198 44.2606 54.9198H48.0167C48.3212 54.9198 48.5242 54.7167 48.5242 54.4122V50.7576C48.6257 50.4531 48.3212 50.1486 48.0167 50.1486Z" fill="#E6E6E8"/>
<path d="M48.0167 50.1486H46.1894V54.9198H48.0167C48.3212 54.9198 48.5242 54.7167 48.5242 54.4122V50.7576C48.6258 50.4531 48.3212 50.1486 48.0167 50.1486Z" fill="white"/>
<path d="M41.1136 50.1486H37.3576C37.053 50.1486 36.85 50.3516 36.85 50.6561V54.4122C36.85 54.7167 37.053 54.9198 37.3576 54.9198H41.1136C41.4182 54.9198 41.6212 54.7167 41.6212 54.4122V50.7576C41.7227 50.4531 41.4182 50.1486 41.1136 50.1486Z" fill="#E6E6E8"/>
<path d="M54.9197 50.1486H51.1636C50.8591 50.1486 50.6561 50.3516 50.6561 50.6561V54.4122C50.6561 54.7167 50.8591 54.9198 51.1636 54.9198H54.9197C55.2242 54.9198 55.4273 54.7167 55.4273 54.4122V50.7576C55.4273 50.4531 55.2242 50.1486 54.9197 50.1486Z" fill="white"/>
<path d="M39.2864 65.5788C40.2395 65.5788 41.0121 64.8062 41.0121 63.8531C41.0121 62.9 40.2395 62.1273 39.2864 62.1273C38.3333 62.1273 37.5606 62.9 37.5606 63.8531C37.5606 64.8062 38.3333 65.5788 39.2864 65.5788Z" fill="#465C6A"/>
<path d="M39.2864 64.7667C39.791 64.7667 40.2 64.3577 40.2 63.8531C40.2 63.3485 39.791 62.9395 39.2864 62.9395C38.7818 62.9395 38.3727 63.3485 38.3727 63.8531C38.3727 64.3577 38.7818 64.7667 39.2864 64.7667Z" fill="#3B4C56"/>
<path d="M43.2455 65.5788C44.1986 65.5788 44.9712 64.8062 44.9712 63.8531C44.9712 62.9 44.1986 62.1273 43.2455 62.1273C42.2924 62.1273 41.5197 62.9 41.5197 63.8531C41.5197 64.8062 42.2924 65.5788 43.2455 65.5788Z" fill="#465C6A"/>
<path d="M43.2455 64.7667C43.7501 64.7667 44.1591 64.3577 44.1591 63.8531C44.1591 63.3485 43.7501 62.9395 43.2455 62.9395C42.7409 62.9395 42.3318 63.3485 42.3318 63.8531C42.3318 64.3577 42.7409 64.7667 43.2455 64.7667Z" fill="#3B4C56"/>
<path d="M43.2455 64.2591H39.2864C39.0833 64.2591 38.8803 64.0561 38.8803 63.8531C38.8803 63.6501 39.0833 63.447 39.2864 63.447H43.2455C43.4485 63.447 43.6515 63.6501 43.6515 63.8531C43.6515 64.0561 43.4485 64.2591 43.2455 64.2591Z" fill="#283A48"/>
<path d="M49.1334 65.7818C50.0865 65.7818 50.8591 65.0092 50.8591 64.0561C50.8591 63.103 50.0865 62.3303 49.1334 62.3303C48.1802 62.3303 47.4076 63.103 47.4076 64.0561C47.4076 65.0092 48.1802 65.7818 49.1334 65.7818Z" fill="#283A48"/>
<path d="M49.1334 64.9697C49.638 64.9697 50.047 64.5607 50.047 64.0561C50.047 63.5515 49.638 63.1425 49.1334 63.1425C48.6288 63.1425 48.2197 63.5515 48.2197 64.0561C48.2197 64.5607 48.6288 64.9697 49.1334 64.9697Z" fill="#465C6A"/>
<path d="M52.9909 65.7818C53.944 65.7818 54.7167 65.0092 54.7167 64.0561C54.7167 63.103 53.944 62.3303 52.9909 62.3303C52.0378 62.3303 51.2652 63.103 51.2652 64.0561C51.2652 65.0092 52.0378 65.7818 52.9909 65.7818Z" fill="#283A48"/>
<path d="M52.9909 64.9697C53.4955 64.9697 53.9046 64.5607 53.9046 64.0561C53.9046 63.5515 53.4955 63.1425 52.9909 63.1425C52.4864 63.1425 52.0773 63.5515 52.0773 64.0561C52.0773 64.5607 52.4864 64.9697 52.9909 64.9697Z" fill="#465C6A"/>
<path d="M53.0924 64.4621H49.1334C48.9303 64.4621 48.7273 64.2591 48.7273 64.0561C48.7273 63.8531 48.9303 63.65 49.1334 63.65H53.0924C53.2955 63.65 53.4985 63.8531 53.4985 64.0561C53.4985 64.2591 53.2955 64.4621 53.0924 64.4621Z" fill="#3B4C56"/>
</svg>
