<svg width="27" height="27" viewBox="0 0 27 27" fill="none" xmlns="http://www.w3.org/2000/svg">
<path d="M9.19937 8.73754C9.14627 7.63305 9.53263 6.55247 10.274 5.73205C11.0154 4.91162 12.0514 4.41812 13.1556 4.35942C14.2598 4.41812 15.2959 4.91162 16.0372 5.73205C16.7786 6.55247 17.165 7.63305 17.1119 8.73754C17.1631 9.84064 16.7759 10.9192 16.0346 11.7377C15.2934 12.5563 14.2584 13.0483 13.1556 13.1063C12.0529 13.0483 11.0179 12.5563 10.2766 11.7377C9.53537 10.9192 9.1481 9.84064 9.19937 8.73754ZM26.3181 13.1625C26.3221 15.7755 25.5415 18.3295 24.0775 20.4938C24.0392 20.5599 23.9953 20.6226 23.9462 20.6813C22.7367 22.4231 21.1234 23.8461 19.2443 24.8289C17.3653 25.8117 15.2762 26.3251 13.1556 26.3251C11.035 26.3251 8.94599 25.8117 7.06691 24.8289C5.18783 23.8461 3.57459 22.4231 2.365 20.6813C2.31599 20.6226 2.27208 20.5599 2.23375 20.4938C1.08766 18.7867 0.357563 16.8347 0.102022 14.7945C-0.153519 12.7542 0.0726027 10.6825 0.762252 8.74545C1.4519 6.80838 2.58589 5.05988 4.07326 3.64018C5.56064 2.22048 7.36001 1.16908 9.32706 0.57031C11.2941 -0.0284595 13.3741 -0.157937 15.4003 0.19226C17.4264 0.542458 19.3423 1.36259 20.9942 2.58687C22.6462 3.81115 23.9882 5.40552 24.9128 7.2421C25.8374 9.07868 26.3187 11.1064 26.3181 13.1625ZM1.39937 13.1625C1.39585 15.16 1.90248 17.1252 2.87125 18.8719C4.90562 16.2 8.80562 14.5313 13.1556 14.5313C17.5056 14.5313 21.4056 16.2 23.44 18.8719C24.3112 17.3023 24.8114 15.554 24.9024 13.7612C24.9934 11.9683 24.6726 10.1784 23.9648 8.52864C23.2569 6.8789 22.1807 5.41313 20.8187 4.24369C19.4567 3.07424 17.845 2.23216 16.1072 1.782C14.3693 1.33183 12.5515 1.28553 10.793 1.64665C9.03452 2.00776 7.38206 2.7667 5.96227 3.8653C4.54249 4.96389 3.39309 6.37297 2.60216 7.98454C1.81124 9.5961 1.3998 11.3674 1.39937 13.1625Z" fill="#1F5673"/>
</svg>
