<svg width="16" height="16" viewBox="0 0 16 16" fill="none" xmlns="http://www.w3.org/2000/svg">
<g clip-path="url(#clip0_55_1099)">
<path d="M8 0.25C3.72501 0.25 0.25 3.72501 0.25 8C0.25 12.275 3.72501 15.75 8 15.75C12.275 15.75 15.75 12.275 15.75 8C15.75 3.72501 12.275 0.25 8 0.25ZM7.25 11.75V11.205C7.25 10.79 7.58499 10.455 8 10.455C8.41501 10.455 8.75 10.79 8.75 11.205V11.75C8.75 12.165 8.41501 12.5 8 12.5C7.58499 12.5 7.25 12.165 7.25 11.75ZM8.75 9.01999C8.75 9.42999 8.41501 9.76999 8 9.76999C7.58499 9.76999 7.25 9.42999 7.25 9.01999V4.25C7.25 3.83499 7.58499 3.5 8 3.5C8.41501 3.5 8.75 3.83499 8.75 4.25V9.01999Z" fill="#525252"/>
</g>
<defs>
<clipPath id="clip0_55_1099">
<rect width="16" height="16" fill="white"/>
</clipPath>
</defs>
</svg>
